{"title":"Sniper Legacy 2014 DVDrip English Klam","uid":11795884,"size":1849927643,"categoryP":"video","categoryS":"movies","magnet":"?xt=urn:btih:b52b2c871a15a17e6f55ad7d156cf9a7b1b23de3&amp;dn=Sniper+Legacy+2014+DVDrip+English+Klam&amp;tr=udp%3A%2F%2Ftracker.openbittorrent.com%3A80&amp;tr=udp%3A%2F%2Fopen.demonii.com%3A1337&amp;tr=udp%3A%2F%2Ftracker.coppersurfer.tk%3A6969&amp;tr=udp%3A%2F%2Fexodus.desync.com%3A6969","seeders":1,"leechers":0,"uploader":"Klambake","files":6,"time":1428167551,"description":" &lt;a href=&quot;http://i.imgur.com/xCm6Kg1.jpg&quot; rel=&quot;nofollow&quot; target=&quot;_NEW&quot;&gt;http://i.imgur.com/xCm6Kg1.jpg&lt;/a&gt;\n\nWith: Tom Berenger, Chad Michael Collins and Dennis Haysbert\n\nEen slechtgezinde moordenaar heeft het gemunt op militaire leiders. Wanneer Brandon te horen krijgt dat zijn vader een van de slachtoffers is gaat hij op zoek naar de dader. Hij ontdekt dat zijn vader niet dood is en komt er al snel achter dat zijn superieuren hem gebruiken als lokaas om de moordenaar te traceren.\n\nA rogue assassin is taking out military leaders, and Brandon gets word that his father is one. He tries to track down the killer, finds out that his father isn't dead and realizes that his superior officers are using him as bait to track the killer.\n &lt;a href=&quot;\nhttp://www.imdb.com/title/tt3776288&quot; rel=&quot;nofollow&quot; target=&quot;_NEW&quot;&gt;\nhttp://www.imdb.com/title/tt3776288&lt;/a&gt;\taAapmAAGG\n\n--------------------- Dutch Friends 4ever ---------------------\n---------------------------------------------------------------\n- Bezoek ook eens mijn vrienden op: &lt;a href=&quot; http://www.Film-Test.nl&quot; rel=&quot;nofollow&quot; target=&quot;_NEW&quot;&gt; http://www.Film-Test.nl&lt;/a&gt; --\n----- voor mijn Nederlandse Sync. ondertitels ---- en meer ----\n------- http://www.Film-Test.nl ---- Over Films en meer -------\n---------------------------------------------------------------\n &lt;a href=&quot;\nhttp://i.imgur.com/mgiI8Zn.jpg&quot; rel=&quot;nofollow&quot; target=&quot;_NEW&quot;&gt;\nhttp://i.imgur.com/mgiI8Zn.jpg&lt;/a&gt; &lt;a href=&quot;\nhttp://i.imgur.com/a6OT9eI.jpg&quot; rel=&quot;nofollow&quot; target=&quot;_NEW&quot;&gt;\nhttp://i.imgur.com/a6OT9eI.jpg&lt;/a&gt; &lt;a href=&quot;\nhttp://i.imgur.com/5ciJ0vJ.jpg&quot; rel=&quot;nofollow&quot; target=&quot;_NEW&quot;&gt;\nhttp://i.imgur.com/5ciJ0vJ.jpg&lt;/a&gt;\n\nGeneral:\n\nComplete name                            : Sniper LegacySniper Legacy.avi\nFormat                                   : AVI\nFormat/Info                              : Audio Video Interleave\nFile size                                : 1.72 GiB\nDuration                                 : 1h 34mn\nOverall bit rate                         : 2 617 Kbps\n\nVideo:\n\nFormat                                   : MPEG-4 Visual\nFormat profile                           : Simple@L3\nFormat settings, BVOP                    : No\nFormat settings, QPel                    : No\nFormat settings, GMC                     : No warppoints\nFormat settings, Matrix                  : Default (H.263)\nCodec ID                                 : XVID\nCodec ID/Hint                            : XviD\nDuration                                 : 1h 34mn\nBit rate                                 : 2 158 Kbps\nWidth                                    : 652 pixels\nHeight                                   : 352 pixels\nDisplay aspect ratio                     : 1.85:1\nFrame rate                               : 25.000 fps\nColor space                              : YUV\nChroma subsampling                       : 4:2:0\nBit depth                                : 8 bits\nScan type                                : Progressive\nCompression mode                         : Lossy\nBits/(Pixel*Frame)                       : 0.376\nStream size                              : 1.42 GiB (82%)\nWriting library                          : XviD 1.1.2 (UTC 2006-11-01)\n\nAudio:\n\nFormat                                   : AC-3\nFormat/Info                              : Audio Coding 3\nMode extension                           : CM (complete main)\nFormat settings, Endianness              : Big\nCodec ID                                 : 2000\nDuration                                 : 1h 34mn\nSource duration                          : 1h 34mn\nBit rate mode                            : Constant\nBit rate                                 : 448 Kbps\nChannel(s)                               : 6 channels\nChannel positions                        : Front: L C R, Side: L R, LFE\nSampling rate                            : 48.0 KHz\nBit depth                                : 16 bits\nCompression mode                         : Lossy\nStream size                              : 301 MiB (17%)\nAlignment                                : Aligned on interleaves\nInterleave, duration                     : 32 ms (0.80 video frame)\nInterleave, preload duration             : 512 ms","torrent":{"xt":"urn:btih:b52b2c871a15a17e6f55ad7d156cf9a7b1b23de3","amp;dn":"Sniper+Legacy+2014+DVDrip+English+Klam","amp;tr":["udp%3A%2F%2Ftracker.openbittorrent.com%3A80","udp%3A%2F%2Fopen.demonii.com%3A1337","udp%3A%2F%2Ftracker.coppersurfer.tk%3A6969","udp%3A%2F%2Fexodus.desync.com%3A6969"],"infoHash":"b52b2c871a15a17e6f55ad7d156cf9a7b1b23de3","infoHashBuffer":{"type":"Buffer","data":[181,43,44,135,26,21,161,126,111,85,173,125,21,108,249,167,177,178,61,227]},"announce":[],"urlList":[]}}